<svg width="300" height="982" viewBox="0 0 300 982" fill="none" xmlns="http://www.w3.org/2000/svg">
<g clip-path="url(#clip0_143_67)" filter="url(#filter0_b_143_67)">
<rect width="300" height="982" fill="#1D1D1D" fill-opacity="0.5"/>
<g filter="url(#filter1_b_143_67)">
<path d="M-0.341064 50H40.1589V50C13.388 56.239 13.157 94.8513 40.1589 100V100H59.6589V346H56.0589H50.1589L44.0688 346.277C40.828 346.424 37.649 347.215 34.7171 348.604L32.5665 349.623C30.6529 350.529 28.969 351.857 27.6406 353.505V353.505C20.1622 362.789 19.4399 375.915 25.7145 386.051V386.051C27.2908 388.598 29.6517 390.611 32.4234 391.745L36.0144 393.214C38.102 394.068 40.2913 394.648 42.5279 394.939L50.6589 396H56.0589H59.6589V598H43L28 605L22.5 612L21.7593 616.691C21.2564 619.876 21.2702 623.121 21.8003 626.302L22.5 630.5L28 639L42 646.5L59.6589 646V982H-0.341064V50Z" fill="#E2E2E2" fill-opacity="0.15"/>
</g>
<g filter="url(#filter2_b_143_67)">
<rect width="100" height="50" fill="#E2E2E2" fill-opacity="0.15"/>
</g>
<rect x="21" y="51" width="271" height="48" rx="24" stroke="url(#paint0_linear_143_67)" stroke-width="2"/>
<circle cx="45" cy="75" r="18" fill="url(#paint1_linear_143_67)"/>
<path d="M38 75H36L45 66L54 75H52" stroke="white" stroke-width="2" stroke-linecap="round" stroke-linejoin="round"/>
<path d="M38 75V82C38 82.5304 38.2107 83.0391 38.5858 83.4142C38.9609 83.7893 39.4696 84 40 84H50C50.5304 84 51.0391 83.7893 51.4142 83.4142C51.7893 83.0391 52 82.5304 52 82V75" stroke="white" stroke-width="2" stroke-linecap="round" stroke-linejoin="round"/>
<path d="M42 84V78C42 77.4696 42.2107 76.9609 42.5858 76.5858C42.9609 76.2107 43.4696 76 44 76H46C46.5304 76 47.0391 76.2107 47.4142 76.5858C47.7893 76.9609 48 77.4696 48 78V84" stroke="white" stroke-width="2" stroke-linecap="round" stroke-linejoin="round"/>
<path d="M119.445 80.5H117.844V72.2031H117.789L114.391 80.4141H113.094L109.688 72.2031H109.633V80.5H108.039V69.2266H110.062L113.711 78.125H113.773L117.414 69.2266H119.445V80.5ZM124.758 73.4922C123.578 73.4922 122.75 74.3906 122.664 75.6328H126.773C126.734 74.375 125.938 73.4922 124.758 73.4922ZM126.766 78.0859H128.367C128.133 79.5859 126.711 80.6562 124.828 80.6562C122.414 80.6562 120.953 79.0234 120.953 76.4297C120.953 73.8516 122.438 72.1328 124.758 72.1328C127.039 72.1328 128.461 73.7422 128.461 76.2344V76.8125H122.656V76.9141C122.656 78.3438 123.516 79.2891 124.867 79.2891C125.828 79.2891 126.539 78.8047 126.766 78.0859ZM129.773 80.5V72.2812H131.383V73.6562H131.422C131.867 72.7188 132.742 72.1406 134.008 72.1406C135.82 72.1406 136.859 73.2969 136.859 75.1797V80.5H135.164V75.5078C135.164 74.2734 134.586 73.5938 133.414 73.5938C132.227 73.5938 131.461 74.4375 131.461 75.7109V80.5H129.773ZM145.539 72.2812V80.5H143.922V79.1094H143.883C143.43 80.0938 142.594 80.6484 141.336 80.6484C139.547 80.6484 138.453 79.4844 138.453 77.6016V72.2812H140.141V77.2734C140.141 78.5234 140.734 79.1953 141.898 79.1953C143.117 79.1953 143.852 78.3516 143.852 77.0703V72.2812H145.539Z" fill="white"/>
<rect x="20.5" y="346.5" width="272" height="49" rx="24.5" stroke="white" stroke-opacity="0.2"/>
<circle cx="45" cy="371" r="18" fill="url(#paint2_linear_143_67)" fill-opacity="0.5"/>
<path d="M115.039 374.984V376.5H108.039V365.227H109.789V374.984H115.039ZM116.391 376.5V368.281H118.078V376.5H116.391ZM117.234 367.078C116.695 367.078 116.258 366.648 116.258 366.117C116.258 365.578 116.695 365.148 117.234 365.148C117.781 365.148 118.219 365.578 118.219 366.117C118.219 366.648 117.781 367.078 117.234 367.078ZM124.18 376.641C122.977 376.641 122.047 376.055 121.539 375.102H121.508V376.5H119.867V365.227H121.555V369.68H121.594C122.086 368.727 123.023 368.148 124.188 368.148C126.258 368.148 127.609 369.789 127.609 372.391C127.609 375 126.266 376.641 124.18 376.641ZM123.727 369.57C122.445 369.57 121.547 370.695 121.547 372.391C121.547 374.102 122.445 375.211 123.727 375.211C125.055 375.211 125.875 374.133 125.875 372.391C125.875 370.664 125.055 369.57 123.727 369.57ZM128.93 376.5V368.281H130.539V369.68H130.578C130.852 368.719 131.586 368.148 132.555 368.148C132.797 368.148 133.008 368.188 133.133 368.211V369.781C133 369.727 132.703 369.688 132.375 369.688C131.289 369.688 130.617 370.414 130.617 371.578V376.5H128.93ZM136.883 375.305C138.062 375.305 138.984 374.492 138.984 373.422V372.773L136.961 372.898C135.953 372.969 135.383 373.414 135.383 374.117C135.383 374.836 135.977 375.305 136.883 375.305ZM136.414 376.641C134.805 376.641 133.68 375.641 133.68 374.164C133.68 372.727 134.781 371.844 136.734 371.734L138.984 371.602V370.969C138.984 370.055 138.367 369.508 137.336 369.508C136.359 369.508 135.75 369.977 135.602 370.711H134.008C134.102 369.227 135.367 368.133 137.398 368.133C139.391 368.133 140.664 369.188 140.664 370.836V376.5H139.047V375.148H139.008C138.531 376.062 137.492 376.641 136.414 376.641ZM142.305 376.5V368.281H143.914V369.68H143.953C144.227 368.719 144.961 368.148 145.93 368.148C146.172 368.148 146.383 368.188 146.508 368.211V369.781C146.375 369.727 146.078 369.688 145.75 369.688C144.664 369.688 143.992 370.414 143.992 371.578V376.5H142.305ZM148.367 379.562C148.234 379.562 147.805 379.547 147.68 379.523V378.156C147.805 378.188 148.086 378.188 148.227 378.188C149.016 378.188 149.43 377.859 149.688 377.016C149.688 377 149.836 376.516 149.836 376.508L146.867 368.281H148.695L150.781 374.969H150.805L152.891 368.281H154.672L151.586 376.93C150.883 378.922 150.078 379.562 148.367 379.562Z" fill="white"/>
<path d="M43 378H37C36.7348 378 36.4804 377.895 36.2929 377.707C36.1054 377.52 36 377.265 36 377V363C36 362.735 36.1054 362.48 36.2929 362.293C36.4804 362.105 36.7348 362 37 362H43C43.5304 362 44.0391 362.211 44.4142 362.586C44.7893 362.961 45 363.47 45 364C45 363.47 45.2107 362.961 45.5858 362.586C45.9609 362.211 46.4696 362 47 362H53C53.2652 362 53.5196 362.105 53.7071 362.293C53.8946 362.48 54 362.735 54 363V377C54 377.265 53.8946 377.52 53.7071 377.707C53.5196 377.895 53.2652 378 53 378H47C46.4696 378 45.9609 378.211 45.5858 378.586C45.2107 378.961 45 379.47 45 380C45 379.47 44.7893 378.961 44.4142 378.586C44.0391 378.211 43.5304 378 43 378Z" stroke="white" stroke-linecap="round" stroke-linejoin="round"/>
<path d="M45 364V380" stroke="white" stroke-linecap="round" stroke-linejoin="round"/>
<path d="M40 366H41" stroke="white" stroke-linecap="round" stroke-linejoin="round"/>
<path d="M40 370H41" stroke="white" stroke-linecap="round" stroke-linejoin="round"/>
<path d="M49 366H50" stroke="white" stroke-linecap="round" stroke-linejoin="round"/>
<path d="M49 370H50" stroke="white" stroke-linecap="round" stroke-linejoin="round"/>
<path d="M49 374H50" stroke="white" stroke-linecap="round" stroke-linejoin="round"/>
<rect x="20.5" y="597.5" width="272" height="49" rx="24.5" stroke="white" stroke-opacity="0.2"/>
<circle cx="45" cy="622" r="18" fill="url(#paint3_linear_143_67)" fill-opacity="0.5"/>
<path d="M112.797 627.688C109.633 627.688 107.633 625.453 107.633 621.859C107.633 618.289 109.648 616.039 112.797 616.039C115.352 616.039 117.281 617.609 117.578 619.961H115.844C115.531 618.516 114.328 617.57 112.797 617.57C110.75 617.57 109.422 619.25 109.422 621.859C109.422 624.492 110.734 626.156 112.805 626.156C114.375 626.156 115.492 625.352 115.844 623.992H117.586C117.156 626.32 115.391 627.688 112.797 627.688ZM124.039 616.039C127.281 616.039 129.32 618.281 129.32 621.867C129.32 625.453 127.281 627.688 124.039 627.688C120.789 627.688 118.758 625.453 118.758 621.867C118.758 618.281 120.789 616.039 124.039 616.039ZM124.039 617.578C121.898 617.578 120.547 619.234 120.547 621.867C120.547 624.492 121.898 626.148 124.039 626.148C126.18 626.148 127.523 624.492 127.523 621.867C127.523 619.234 126.18 617.578 124.039 617.578ZM132.695 627.5H130.992V616.227H132.578L138.422 624.539H138.484V616.227H140.188V627.5H138.609L132.766 619.195H132.695V627.5ZM146.82 627.5H145.07V617.734H141.617V616.227H150.266V617.734H146.82V627.5ZM157.492 627.5L156.461 624.453H152.164L151.133 627.5H149.312L153.383 616.227H155.273L159.344 627.5H157.492ZM154.289 618.102L152.609 623.047H156.016L154.336 618.102H154.289ZM164.938 627.688C161.773 627.688 159.773 625.453 159.773 621.859C159.773 618.289 161.789 616.039 164.938 616.039C167.492 616.039 169.422 617.609 169.719 619.961H167.984C167.672 618.516 166.469 617.57 164.938 617.57C162.891 617.57 161.562 619.25 161.562 621.859C161.562 624.492 162.875 626.156 164.945 626.156C166.516 626.156 167.633 625.352 167.984 623.992H169.727C169.297 626.32 167.531 627.688 164.938 627.688ZM175.367 627.5H173.617V617.734H170.164V616.227H178.812V617.734H175.367V627.5ZM179.742 624.359H181.469C181.594 625.477 182.68 626.211 184.164 626.211C185.586 626.211 186.609 625.477 186.609 624.469C186.609 623.594 185.992 623.07 184.531 622.711L183.07 622.359C181 621.859 180.039 620.891 180.039 619.32C180.039 617.375 181.734 616.039 184.141 616.039C186.523 616.039 188.156 617.375 188.211 619.32H186.508C186.406 618.195 185.477 617.516 184.117 617.516C182.758 617.516 181.828 618.203 181.828 619.203C181.828 620 182.422 620.469 183.875 620.828L185.117 621.133C187.43 621.68 188.391 622.609 188.391 624.258C188.391 626.367 186.711 627.688 184.039 627.688C181.539 627.688 179.852 626.398 179.742 624.359Z" fill="white"/>
<path d="M40 614V630L53 622L40 614Z" stroke="white" stroke-width="2" stroke-linecap="round" stroke-linejoin="round"/>
<g filter="url(#filter3_d_143_67)">
<circle cx="88" cy="133" r="18" fill="url(#paint4_linear_143_67)"/>
</g>
<path d="M89 142C86.6131 142 84.3239 141.052 82.636 139.364C80.9482 137.676 80 135.387 80 133C80 130.613 80.9482 128.324 82.636 126.636C84.3239 124.948 86.6131 124 89 124C93.97 124 98 127.582 98 132C98 133.06 97.526 134.078 96.682 134.828C95.838 135.578 94.693 136 93.5 136H91C90.5539 135.993 90.1181 136.135 89.7621 136.404C89.4061 136.673 89.1503 137.053 89.0353 137.484C88.9203 137.916 88.9528 138.373 89.1276 138.783C89.3025 139.194 89.6095 139.534 90 139.75C90.1997 139.934 90.3366 140.176 90.3915 140.442C90.4465 140.709 90.4167 140.985 90.3064 141.233C90.196 141.482 90.0107 141.689 89.7764 141.827C89.5421 141.964 89.2705 142.025 89 142Z" stroke="url(#paint5_linear_143_67)" stroke-width="2" stroke-linecap="round" stroke-linejoin="round"/>
<path d="M84.5 131.5C84.5 131.765 84.6054 132.02 84.7929 132.207C84.9804 132.395 85.2348 132.5 85.5 132.5C85.7652 132.5 86.0196 132.395 86.2071 132.207C86.3946 132.02 86.5 131.765 86.5 131.5C86.5 131.235 86.3946 130.98 86.2071 130.793C86.0196 130.605 85.7652 130.5 85.5 130.5C85.2348 130.5 84.9804 130.605 84.7929 130.793C84.6054 130.98 84.5 131.235 84.5 131.5Z" stroke="url(#paint6_linear_143_67)" stroke-width="2" stroke-linecap="round" stroke-linejoin="round"/>
<path d="M88.5 128.5C88.5 128.765 88.6054 129.02 88.7929 129.207C88.9804 129.395 89.2348 129.5 89.5 129.5C89.7652 129.5 90.0196 129.395 90.2071 129.207C90.3946 129.02 90.5 128.765 90.5 128.5C90.5 128.235 90.3946 127.98 90.2071 127.793C90.0196 127.605 89.7652 127.5 89.5 127.5C89.2348 127.5 88.9804 127.605 88.7929 127.793C88.6054 127.98 88.5 128.235 88.5 128.5Z" stroke="url(#paint7_linear_143_67)" stroke-width="2" stroke-linecap="round" stroke-linejoin="round"/>
<path d="M92.5 131.5C92.5 131.765 92.6054 132.02 92.7929 132.207C92.9804 132.395 93.2348 132.5 93.5 132.5C93.7652 132.5 94.0196 132.395 94.2071 132.207C94.3946 132.02 94.5 131.765 94.5 131.5C94.5 131.235 94.3946 130.98 94.2071 130.793C94.0196 130.605 93.7652 130.5 93.5 130.5C93.2348 130.5 92.9804 130.605 92.7929 130.793C92.6054 130.98 92.5 131.235 92.5 131.5Z" stroke="url(#paint8_linear_143_67)" stroke-width="2" stroke-linecap="round" stroke-linejoin="round"/>
<path d="M123.75 134.312C123.75 137.367 121.945 139.188 118.891 139.188C115.664 139.188 113.633 136.93 113.633 133.312C113.633 129.758 115.656 127.539 118.867 127.539C121.375 127.539 123.273 129.023 123.664 131.273H121.867C121.445 129.875 120.344 129.07 118.875 129.07C116.719 129.07 115.422 130.648 115.422 133.297C115.422 135.992 116.758 137.656 118.906 137.656C120.734 137.656 122 136.484 122.023 134.773V134.578H119.109V133.164H123.75V134.312ZM132.695 139L131.664 135.953H127.367L126.336 139H124.516L128.586 127.727H130.477L134.547 139H132.695ZM129.492 129.602L127.812 134.547H131.219L129.539 129.602H129.492ZM142.789 137.484V139H135.789V127.727H137.539V137.484H142.789ZM151.289 137.484V139H144.289V127.727H146.039V137.484H151.289ZM159.945 137.484V139H152.789V127.727H159.945V129.234H154.539V132.531H159.656V133.984H154.539V137.484H159.945ZM163.492 129.195V133.25H165.945C167.297 133.25 168.07 132.508 168.07 131.219C168.07 129.961 167.25 129.195 165.898 129.195H163.492ZM163.492 134.664V139H161.742V127.727H166.109C168.43 127.727 169.875 129.07 169.875 131.172C169.875 132.695 169.062 133.93 167.688 134.391L170.211 139H168.195L165.898 134.664H163.492ZM176.359 139H174.609V134.383L170.641 127.727H172.594L175.469 132.703H175.523L178.398 127.727H180.336L176.359 134.383V139Z" fill="url(#paint9_linear_143_67)"/>
<path d="M121.383 184L120.352 180.953H116.055L115.023 184H113.203L117.273 172.727H119.164L123.234 184H121.383ZM118.18 174.602L116.5 179.547H119.906L118.227 174.602H118.18ZM124.477 172.727H128.453C131.805 172.727 133.789 174.789 133.789 178.344C133.789 181.906 131.812 184 128.453 184H124.477V172.727ZM126.227 174.234V182.484H128.289C130.68 182.484 132 181.023 132 178.359C132 175.703 130.672 174.234 128.289 174.234H126.227ZM146.867 184H145.266V175.703H145.211L141.812 183.914H140.516L137.109 175.703H137.055V184H135.461V172.727H137.484L141.133 181.625H141.195L144.836 172.727H146.867V184ZM150.695 184H148.945V172.727H150.695V184ZM152.273 180.859H154C154.125 181.977 155.211 182.711 156.695 182.711C158.117 182.711 159.141 181.977 159.141 180.969C159.141 180.094 158.523 179.57 157.062 179.211L155.602 178.859C153.531 178.359 152.57 177.391 152.57 175.82C152.57 173.875 154.266 172.539 156.672 172.539C159.055 172.539 160.688 173.875 160.742 175.82H159.039C158.938 174.695 158.008 174.016 156.648 174.016C155.289 174.016 154.359 174.703 154.359 175.703C154.359 176.5 154.953 176.969 156.406 177.328L157.648 177.633C159.961 178.18 160.922 179.109 160.922 180.758C160.922 182.867 159.242 184.188 156.57 184.188C154.07 184.188 152.383 182.898 152.273 180.859ZM161.992 180.859H163.719C163.844 181.977 164.93 182.711 166.414 182.711C167.836 182.711 168.859 181.977 168.859 180.969C168.859 180.094 168.242 179.57 166.781 179.211L165.32 178.859C163.25 178.359 162.289 177.391 162.289 175.82C162.289 173.875 163.984 172.539 166.391 172.539C168.773 172.539 170.406 173.875 170.461 175.82H168.758C168.656 174.695 167.727 174.016 166.367 174.016C165.008 174.016 164.078 174.703 164.078 175.703C164.078 176.5 164.672 176.969 166.125 177.328L167.367 177.633C169.68 178.18 170.641 179.109 170.641 180.758C170.641 182.867 168.961 184.188 166.289 184.188C163.789 184.188 162.102 182.898 161.992 180.859ZM173.961 184H172.211V172.727H173.961V184ZM180.914 172.539C184.156 172.539 186.195 174.781 186.195 178.367C186.195 181.953 184.156 184.188 180.914 184.188C177.664 184.188 175.633 181.953 175.633 178.367C175.633 174.781 177.664 172.539 180.914 172.539ZM180.914 174.078C178.773 174.078 177.422 175.734 177.422 178.367C177.422 180.992 178.773 182.648 180.914 182.648C183.055 182.648 184.398 180.992 184.398 178.367C184.398 175.734 183.055 174.078 180.914 174.078ZM189.57 184H187.867V172.727H189.453L195.297 181.039H195.359V172.727H197.062V184H195.484L189.641 175.695H189.57V184Z" fill="white" fill-opacity="0.6"/>
<path d="M86 169H82C81.4696 169 80.9609 169.211 80.5858 169.586C80.2107 169.961 80 170.47 80 171V175C80 175.53 80.2107 176.039 80.5858 176.414C80.9609 176.789 81.4696 177 82 177H86C86.5304 177 87.0391 176.789 87.4142 176.414C87.7893 176.039 88 175.53 88 175V171C88 170.47 87.7893 169.961 87.4142 169.586C87.0391 169.211 86.5304 169 86 169Z" fill="white" fill-opacity="0.8"/>
<path d="M86 179H82C81.4696 179 80.9609 179.211 80.5858 179.586C80.2107 179.961 80 180.47 80 181V185C80 185.53 80.2107 186.039 80.5858 186.414C80.9609 186.789 81.4696 187 82 187H86C86.5304 187 87.0391 186.789 87.4142 186.414C87.7893 186.039 88 185.53 88 185V181C88 180.47 87.7893 179.961 87.4142 179.586C87.0391 179.211 86.5304 179 86 179Z" fill="white" fill-opacity="0.8"/>
<path d="M96 179H92C91.4696 179 90.9609 179.211 90.5858 179.586C90.2107 179.961 90 180.47 90 181V185C90 185.53 90.2107 186.039 90.5858 186.414C90.9609 186.789 91.4696 187 92 187H96C96.5304 187 97.0391 186.789 97.4142 186.414C97.7893 186.039 98 185.53 98 185V181C98 180.47 97.7893 179.961 97.4142 179.586C97.0391 179.211 96.5304 179 96 179Z" fill="white" fill-opacity="0.8"/>
<path d="M94.0001 169C94.245 169 94.4814 169.09 94.6645 169.253C94.8475 169.415 94.9645 169.64 94.9931 169.883L95.0001 170V172H97.0001C97.255 172 97.5001 172.098 97.6855 172.273C97.8708 172.448 97.9823 172.687 97.9973 172.941C98.0122 173.196 97.9294 173.446 97.7658 173.642C97.6023 173.837 97.3702 173.963 97.1171 173.993L97.0001 174H95.0001V176C94.9998 176.255 94.9022 176.5 94.7273 176.685C94.5523 176.871 94.3132 176.982 94.0587 176.997C93.8043 177.012 93.5537 176.929 93.3583 176.766C93.1628 176.602 93.0372 176.37 93.0071 176.117L93.0001 176V174H91.0001C90.7452 174 90.5001 173.902 90.3147 173.727C90.1294 173.552 90.0179 173.313 90.0029 173.059C89.988 172.804 90.0708 172.554 90.2344 172.358C90.398 172.163 90.63 172.037 90.8831 172.007L91.0001 172H93.0001V170C93.0001 169.735 93.1055 169.48 93.293 169.293C93.4805 169.105 93.7349 169 94.0001 169Z" fill="white" fill-opacity="0.8"/>
<path d="M115.789 435H114.039V423.727H121.078V425.234H115.789V428.805H120.633V430.281H115.789V435ZM124.789 433.805C125.969 433.805 126.891 432.992 126.891 431.922V431.273L124.867 431.398C123.859 431.469 123.289 431.914 123.289 432.617C123.289 433.336 123.883 433.805 124.789 433.805ZM124.32 435.141C122.711 435.141 121.586 434.141 121.586 432.664C121.586 431.227 122.688 430.344 124.641 430.234L126.891 430.102V429.469C126.891 428.555 126.273 428.008 125.242 428.008C124.266 428.008 123.656 428.477 123.508 429.211H121.914C122.008 427.727 123.273 426.633 125.305 426.633C127.297 426.633 128.57 427.688 128.57 429.336V435H126.953V433.648H126.914C126.438 434.562 125.398 435.141 124.32 435.141ZM137.227 426.781L134.281 435H132.469L129.508 426.781H131.305L133.367 433.352H133.398L135.461 426.781H137.227ZM141.492 435.156C139.141 435.156 137.594 433.539 137.594 430.891C137.594 428.25 139.148 426.633 141.492 426.633C143.836 426.633 145.391 428.25 145.391 430.891C145.391 433.539 143.844 435.156 141.492 435.156ZM141.492 433.766C142.82 433.766 143.672 432.719 143.672 430.891C143.672 429.07 142.812 428.023 141.492 428.023C140.172 428.023 139.312 429.07 139.312 430.891C139.312 432.719 140.172 433.766 141.492 433.766ZM146.695 435V426.781H148.305V428.18H148.344C148.617 427.219 149.352 426.648 150.32 426.648C150.562 426.648 150.773 426.688 150.898 426.711V428.281C150.766 428.227 150.469 428.188 150.141 428.188C149.055 428.188 148.383 428.914 148.383 430.078V435H146.695ZM152 435V426.781H153.688V435H152ZM152.844 425.578C152.305 425.578 151.867 425.148 151.867 424.617C151.867 424.078 152.305 423.648 152.844 423.648C153.391 423.648 153.828 424.078 153.828 424.617C153.828 425.148 153.391 425.578 152.844 425.578ZM155.906 424.836H157.602V426.781H159.164V428.117H157.602V432.648C157.602 433.359 157.914 433.68 158.602 433.68C158.773 433.68 159.047 433.664 159.156 433.641V434.977C158.969 435.023 158.594 435.055 158.219 435.055C156.555 435.055 155.906 434.422 155.906 432.836V428.117H154.711V426.781H155.906V424.836ZM163.789 427.992C162.609 427.992 161.781 428.891 161.695 430.133H165.805C165.766 428.875 164.969 427.992 163.789 427.992ZM165.797 432.586H167.398C167.164 434.086 165.742 435.156 163.859 435.156C161.445 435.156 159.984 433.523 159.984 430.93C159.984 428.352 161.469 426.633 163.789 426.633C166.07 426.633 167.492 428.242 167.492 430.734V431.312H161.688V431.414C161.688 432.844 162.547 433.789 163.898 433.789C164.859 433.789 165.57 433.305 165.797 432.586Z" fill="white" fill-opacity="0.6"/>
<path d="M96.5001 428.572L89.0001 436L81.5001 428.572C81.0054 428.091 80.6157 427.512 80.3556 426.873C80.0955 426.233 79.9706 425.547 79.9888 424.857C80.007 424.167 80.1678 423.488 80.4612 422.863C80.7546 422.239 81.1742 421.681 81.6935 421.227C82.2129 420.772 82.8208 420.43 83.4789 420.221C84.137 420.013 84.8311 419.944 85.5174 420.017C86.2038 420.09 86.8676 420.305 87.4669 420.647C88.0663 420.989 88.5883 421.452 89.0001 422.006C89.4136 421.456 89.9362 420.997 90.5352 420.659C91.1341 420.32 91.7966 420.108 92.481 420.038C93.1654 419.967 93.8571 420.038 94.5128 420.246C95.1685 420.455 95.7741 420.797 96.2916 421.25C96.8091 421.704 97.2275 422.259 97.5205 422.882C97.8135 423.505 97.9748 424.181 97.9944 424.869C98.0139 425.557 97.8913 426.241 97.6342 426.879C97.3771 427.518 96.991 428.096 96.5001 428.578" stroke="white" stroke-linecap="round" stroke-linejoin="round"/>
<path d="M114.039 468.727H118.266C120.453 468.727 121.977 470.234 121.977 472.43C121.977 474.633 120.422 476.148 118.211 476.148H115.789V480H114.039V468.727ZM115.789 470.203V474.68H117.797C119.32 474.68 120.188 473.859 120.188 472.438C120.188 471.016 119.32 470.203 117.805 470.203H115.789ZM126.477 480.156C124.125 480.156 122.578 478.539 122.578 475.891C122.578 473.25 124.133 471.633 126.477 471.633C128.82 471.633 130.375 473.25 130.375 475.891C130.375 478.539 128.828 480.156 126.477 480.156ZM126.477 478.766C127.805 478.766 128.656 477.719 128.656 475.891C128.656 474.07 127.797 473.023 126.477 473.023C125.156 473.023 124.297 474.07 124.297 475.891C124.297 477.719 125.156 478.766 126.477 478.766ZM135.961 471.648C138.047 471.648 139.422 473.289 139.422 475.891C139.422 478.492 138.055 480.141 135.992 480.141C134.812 480.141 133.875 479.562 133.406 478.648H133.367V482.719H131.68V471.781H133.312V473.195H133.344C133.828 472.25 134.773 471.648 135.961 471.648ZM135.516 478.711C136.852 478.711 137.688 477.617 137.688 475.891C137.688 474.172 136.852 473.07 135.516 473.07C134.227 473.07 133.359 474.195 133.359 475.891C133.359 477.602 134.219 478.711 135.516 478.711ZM147.773 471.781V480H146.156V478.609H146.117C145.664 479.594 144.828 480.148 143.57 480.148C141.781 480.148 140.688 478.984 140.688 477.102V471.781H142.375V476.773C142.375 478.023 142.969 478.695 144.133 478.695C145.352 478.695 146.086 477.852 146.086 476.57V471.781H147.773ZM149.508 480V468.727H151.195V480H149.508ZM155.805 478.805C156.984 478.805 157.906 477.992 157.906 476.922V476.273L155.883 476.398C154.875 476.469 154.305 476.914 154.305 477.617C154.305 478.336 154.898 478.805 155.805 478.805ZM155.336 480.141C153.727 480.141 152.602 479.141 152.602 477.664C152.602 476.227 153.703 475.344 155.656 475.234L157.906 475.102V474.469C157.906 473.555 157.289 473.008 156.258 473.008C155.281 473.008 154.672 473.477 154.523 474.211H152.93C153.023 472.727 154.289 471.633 156.32 471.633C158.312 471.633 159.586 472.688 159.586 474.336V480H157.969V478.648H157.93C157.453 479.562 156.414 480.141 155.336 480.141ZM161.227 480V471.781H162.836V473.18H162.875C163.148 472.219 163.883 471.648 164.852 471.648C165.094 471.648 165.305 471.688 165.43 471.711V473.281C165.297 473.227 165 473.188 164.672 473.188C163.586 473.188 162.914 473.914 162.914 475.078V480H161.227Z" fill="white" fill-opacity="0.6"/>
<path d="M89.0001 478.75L82.8281 481.995L84.0071 475.122L79.0071 470.255L85.9071 469.255L88.9931 463.002L92.0791 469.255L98.9791 470.255L93.9791 475.122L95.1581 481.995L89.0001 478.75Z" stroke="white" stroke-linecap="round" stroke-linejoin="round"/>
<path d="M115.789 515.195V519.25H118.242C119.594 519.25 120.367 518.508 120.367 517.219C120.367 515.961 119.547 515.195 118.195 515.195H115.789ZM115.789 520.664V525H114.039V513.727H118.406C120.727 513.727 122.172 515.07 122.172 517.172C122.172 518.695 121.359 519.93 119.984 520.391L122.508 525H120.492L118.195 520.664H115.789ZM127.07 517.992C125.891 517.992 125.062 518.891 124.977 520.133H129.086C129.047 518.875 128.25 517.992 127.07 517.992ZM129.078 522.586H130.68C130.445 524.086 129.023 525.156 127.141 525.156C124.727 525.156 123.266 523.523 123.266 520.93C123.266 518.352 124.75 516.633 127.07 516.633C129.352 516.633 130.773 518.242 130.773 520.734V521.312H124.969V521.414C124.969 522.844 125.828 523.789 127.18 523.789C128.141 523.789 128.852 523.305 129.078 522.586ZM139.141 519.609H137.531C137.359 518.734 136.703 518.039 135.602 518.039C134.297 518.039 133.438 519.125 133.438 520.891C133.438 522.695 134.305 523.742 135.617 523.742C136.656 523.742 137.336 523.172 137.531 522.219H139.156C138.977 523.969 137.578 525.156 135.602 525.156C133.25 525.156 131.719 523.547 131.719 520.891C131.719 518.281 133.25 516.633 135.586 516.633C137.703 516.633 138.992 517.992 139.141 519.609ZM143.883 525.156C141.531 525.156 139.984 523.539 139.984 520.891C139.984 518.25 141.539 516.633 143.883 516.633C146.227 516.633 147.781 518.25 147.781 520.891C147.781 523.539 146.234 525.156 143.883 525.156ZM143.883 523.766C145.211 523.766 146.062 522.719 146.062 520.891C146.062 519.07 145.203 518.023 143.883 518.023C142.562 518.023 141.703 519.07 141.703 520.891C141.703 522.719 142.562 523.766 143.883 523.766ZM149.086 525V516.781H150.695V518.164H150.734C151.102 517.25 151.961 516.641 153.07 516.641C154.211 516.641 155.039 517.227 155.367 518.25H155.406C155.828 517.25 156.797 516.641 157.969 516.641C159.594 516.641 160.656 517.719 160.656 519.352V525H158.961V519.758C158.961 518.695 158.391 518.086 157.391 518.086C156.391 518.086 155.695 518.828 155.695 519.867V525H154.039V519.633C154.039 518.688 153.438 518.086 152.484 518.086C151.484 518.086 150.773 518.867 150.773 519.922V525H149.086ZM162.289 525V516.781H163.898V518.164H163.938C164.305 517.25 165.164 516.641 166.273 516.641C167.414 516.641 168.242 517.227 168.57 518.25H168.609C169.031 517.25 170 516.641 171.172 516.641C172.797 516.641 173.859 517.719 173.859 519.352V525H172.164V519.758C172.164 518.695 171.594 518.086 170.594 518.086C169.594 518.086 168.898 518.828 168.898 519.867V525H167.242V519.633C167.242 518.688 166.641 518.086 165.688 518.086C164.688 518.086 163.977 518.867 163.977 519.922V525H162.289ZM178.93 517.992C177.75 517.992 176.922 518.891 176.836 520.133H180.945C180.906 518.875 180.109 517.992 178.93 517.992ZM180.938 522.586H182.539C182.305 524.086 180.883 525.156 179 525.156C176.586 525.156 175.125 523.523 175.125 520.93C175.125 518.352 176.609 516.633 178.93 516.633C181.211 516.633 182.633 518.242 182.633 520.734V521.312H176.828V521.414C176.828 522.844 177.688 523.789 179.039 523.789C180 523.789 180.711 523.305 180.938 522.586ZM183.945 525V516.781H185.555V518.156H185.594C186.039 517.219 186.914 516.641 188.18 516.641C189.992 516.641 191.031 517.797 191.031 519.68V525H189.336V520.008C189.336 518.773 188.758 518.094 187.586 518.094C186.398 518.094 185.633 518.938 185.633 520.211V525H183.945ZM195.75 525.141C193.672 525.141 192.297 523.484 192.297 520.891C192.297 518.297 193.672 516.648 195.734 516.648C196.914 516.648 197.852 517.242 198.312 518.148H198.344V513.727H200.039V525H198.398V523.602H198.367C197.883 524.539 196.945 525.141 195.75 525.141ZM196.195 518.07C194.859 518.07 194.023 519.164 194.023 520.891C194.023 522.625 194.859 523.711 196.195 523.711C197.492 523.711 198.359 522.609 198.359 520.891C198.359 519.188 197.492 518.07 196.195 518.07ZM205.211 517.992C204.031 517.992 203.203 518.891 203.117 520.133H207.227C207.188 518.875 206.391 517.992 205.211 517.992ZM207.219 522.586H208.82C208.586 524.086 207.164 525.156 205.281 525.156C202.867 525.156 201.406 523.523 201.406 520.93C201.406 518.352 202.891 516.633 205.211 516.633C207.492 516.633 208.914 518.242 208.914 520.734V521.312H203.109V521.414C203.109 522.844 203.969 523.789 205.32 523.789C206.281 523.789 206.992 523.305 207.219 522.586ZM213.312 525.141C211.234 525.141 209.859 523.484 209.859 520.891C209.859 518.297 211.234 516.648 213.297 516.648C214.477 516.648 215.414 517.242 215.875 518.148H215.906V513.727H217.602V525H215.961V523.602H215.93C215.445 524.539 214.508 525.141 213.312 525.141ZM213.758 518.07C212.422 518.07 211.586 519.164 211.586 520.891C211.586 522.625 212.422 523.711 213.758 523.711C215.055 523.711 215.922 522.609 215.922 520.891C215.922 519.188 215.055 518.07 213.758 518.07Z" fill="white" fill-opacity="0.6"/>
<path d="M80 518C80 519.182 80.2328 520.352 80.6851 521.444C81.1374 522.536 81.8003 523.528 82.636 524.364C83.4718 525.2 84.4639 525.863 85.5558 526.315C86.6478 526.767 87.8181 527 89 527C90.1819 527 91.3522 526.767 92.4442 526.315C93.5361 525.863 94.5282 525.2 95.364 524.364C96.1997 523.528 96.8626 522.536 97.3149 521.444C97.7672 520.352 98 519.182 98 518C98 516.818 97.7672 515.648 97.3149 514.556C96.8626 513.464 96.1997 512.472 95.364 511.636C94.5282 510.8 93.5361 510.137 92.4442 509.685C91.3522 509.233 90.1819 509 89 509C87.8181 509 86.6478 509.233 85.5558 509.685C84.4639 510.137 83.4718 510.8 82.636 511.636C81.8003 512.472 81.1374 513.464 80.6851 514.556C80.2328 515.648 80 516.818 80 518Z" stroke="white" stroke-linecap="round" stroke-linejoin="round"/>
<path d="M86 518L88 520L92 516" stroke="white" stroke-linecap="round" stroke-linejoin="round"/>
<path d="M115.789 570H114.039V558.727H121.078V560.234H115.789V563.805H120.633V565.281H115.789V570ZM122.398 570V561.781H124.008V563.18H124.047C124.32 562.219 125.055 561.648 126.023 561.648C126.266 561.648 126.477 561.688 126.602 561.711V563.281C126.469 563.227 126.172 563.188 125.844 563.188C124.758 563.188 124.086 563.914 124.086 565.078V570H122.398ZM130.727 562.992C129.547 562.992 128.719 563.891 128.633 565.133H132.742C132.703 563.875 131.906 562.992 130.727 562.992ZM132.734 567.586H134.336C134.102 569.086 132.68 570.156 130.797 570.156C128.383 570.156 126.922 568.523 126.922 565.93C126.922 563.352 128.406 561.633 130.727 561.633C133.008 561.633 134.43 563.242 134.43 565.734V566.312H128.625V566.414C128.625 567.844 129.484 568.789 130.836 568.789C131.797 568.789 132.508 568.305 132.734 567.586ZM139.18 562.992C138 562.992 137.172 563.891 137.086 565.133H141.195C141.156 563.875 140.359 562.992 139.18 562.992ZM141.188 567.586H142.789C142.555 569.086 141.133 570.156 139.25 570.156C136.836 570.156 135.375 568.523 135.375 565.93C135.375 563.352 136.859 561.633 139.18 561.633C141.461 561.633 142.883 563.242 142.883 565.734V566.312H137.078V566.414C137.078 567.844 137.938 568.789 139.289 568.789C140.25 568.789 140.961 568.305 141.188 567.586Z" fill="white" fill-opacity="0.6"/>
<path d="M89 555C91.0784 555 93.0752 555.809 94.5677 557.255C96.0601 558.702 96.931 560.673 96.996 562.75L97 563L96.999 569.954L97.009 570.057C97.0405 570.588 96.9189 571.117 96.6587 571.581C96.3984 572.045 96.0105 572.425 95.541 572.675L95.378 572.755C94.325 573.23 93.095 573.003 92.249 572.162L92.112 572.016C92.0512 571.938 91.9735 571.875 91.8848 571.832C91.7961 571.789 91.6987 571.766 91.6 571.766C91.5013 571.766 91.4039 571.789 91.3152 571.832C91.2265 571.875 91.1488 571.938 91.088 572.016C90.8401 572.333 90.5233 572.59 90.1615 572.766C89.7997 572.943 89.4025 573.034 89 573.034C88.5975 573.034 88.2003 572.943 87.8385 572.766C87.4767 572.59 87.1598 572.333 86.912 572.016C86.8512 571.938 86.7735 571.875 86.6848 571.832C86.5961 571.789 86.4987 571.766 86.4 571.766C86.2 571.766 86.011 571.858 85.85 572.062C85.467 572.496 84.9582 572.799 84.3946 572.93C83.831 573.061 83.2406 573.012 82.7057 572.792C82.1708 572.571 81.7181 572.189 81.4108 571.699C81.1034 571.209 80.9567 570.635 80.991 570.057L80.999 569.966L81 563L81.004 562.75C81.0689 560.673 81.9398 558.702 83.4323 557.255C84.9247 555.809 86.9216 555 89 555ZM91.82 565.429C91.6686 565.212 91.437 565.063 91.1762 565.016C90.9154 564.969 90.6466 565.028 90.429 565.179C90.0097 565.471 89.511 565.628 89 565.628C88.489 565.628 87.9903 565.471 87.571 565.179C87.3532 565.028 87.0843 564.969 86.8232 565.016C86.5622 565.063 86.3304 565.211 86.179 565.429C86.0275 565.647 85.9688 565.916 86.0157 566.177C86.0626 566.438 86.2112 566.67 86.429 566.821C87.1835 567.346 88.0807 567.628 89 567.628C89.9193 567.628 90.8165 567.346 91.571 566.821C91.6788 566.746 91.7708 566.651 91.8417 566.54C91.9126 566.429 91.9611 566.306 91.9843 566.177C92.0075 566.048 92.005 565.915 91.977 565.787C91.949 565.658 91.896 565.537 91.821 565.429H91.82ZM87.01 561L86.883 561.007C86.6299 561.037 86.3978 561.163 86.2342 561.358C86.0707 561.554 85.9879 561.804 86.0028 562.059C86.0177 562.313 86.1293 562.552 86.3146 562.727C86.5 562.902 86.7451 563 87 563L87.127 562.993C87.3801 562.963 87.6121 562.837 87.7757 562.642C87.9393 562.446 88.0221 562.196 88.0072 561.941C87.9922 561.687 87.8807 561.448 87.6954 561.273C87.51 561.098 87.2649 561 87.01 561ZM91.01 561L90.883 561.007C90.6299 561.037 90.3978 561.163 90.2342 561.358C90.0707 561.554 89.9879 561.804 90.0028 562.059C90.0177 562.313 90.1293 562.552 90.3146 562.727C90.5 562.902 90.7451 563 91 563L91.127 562.993C91.3801 562.963 91.6121 562.837 91.7757 562.642C91.9393 562.446 92.0221 562.196 92.0072 561.941C91.9922 561.687 91.8807 561.448 91.6954 561.273C91.51 561.098 91.2649 561 91.01 561Z" fill="white"/>
<path d="M121.039 684.484V686H114.039V674.727H115.789V684.484H121.039ZM122.391 686V677.781H124.078V686H122.391ZM123.234 676.578C122.695 676.578 122.258 676.148 122.258 675.617C122.258 675.078 122.695 674.648 123.234 674.648C123.781 674.648 124.219 675.078 124.219 675.617C124.219 676.148 123.781 676.578 123.234 676.578ZM125.805 686V677.781H127.414V679.156H127.453C127.898 678.219 128.773 677.641 130.039 677.641C131.852 677.641 132.891 678.797 132.891 680.68V686H131.195V681.008C131.195 679.773 130.617 679.094 129.445 679.094C128.258 679.094 127.492 679.938 127.492 681.211V686H125.805ZM136.289 681.305L139.609 677.781H141.594L138.188 681.32L141.727 686H139.766L136.977 682.352L136.273 683.047V686H134.586V674.727H136.273V681.305H136.289ZM145.648 678.992C144.469 678.992 143.641 679.891 143.555 681.133H147.664C147.625 679.875 146.828 678.992 145.648 678.992ZM147.656 683.586H149.258C149.023 685.086 147.602 686.156 145.719 686.156C143.305 686.156 141.844 684.523 141.844 681.93C141.844 679.352 143.328 677.633 145.648 677.633C147.93 677.633 149.352 679.242 149.352 681.734V682.312H143.547V682.414C143.547 683.844 144.406 684.789 145.758 684.789C146.719 684.789 147.43 684.305 147.656 683.586ZM153.75 686.141C151.672 686.141 150.297 684.484 150.297 681.891C150.297 679.297 151.672 677.648 153.734 677.648C154.914 677.648 155.852 678.242 156.312 679.148H156.344V674.727H158.039V686H156.398V684.602H156.367C155.883 685.539 154.945 686.141 153.75 686.141ZM154.195 679.07C152.859 679.07 152.023 680.164 152.023 681.891C152.023 683.625 152.859 684.711 154.195 684.711C155.492 684.711 156.359 683.609 156.359 681.891C156.359 680.188 155.492 679.07 154.195 679.07ZM159.828 686V677.781H161.516V686H159.828ZM160.672 676.578C160.133 676.578 159.695 676.148 159.695 675.617C159.695 675.078 160.133 674.648 160.672 674.648C161.219 674.648 161.656 675.078 161.656 675.617C161.656 676.148 161.219 676.578 160.672 676.578ZM163.242 686V677.781H164.852V679.156H164.891C165.336 678.219 166.211 677.641 167.477 677.641C169.289 677.641 170.328 678.797 170.328 680.68V686H168.633V681.008C168.633 679.773 168.055 679.094 166.883 679.094C165.695 679.094 164.93 679.938 164.93 681.211V686H163.242Z" fill="white" fill-opacity="0.6"/>
<path d="M97.447 689.452H93.893V683.883C93.893 682.555 93.866 680.846 92.041 680.846C90.188 680.846 89.905 682.291 89.905 683.785V689.452H86.351V678H89.765V679.561H89.811C90.288 678.661 91.448 677.711 93.181 677.711C96.782 677.711 97.448 680.081 97.448 683.166L97.447 689.452ZM82.337 676.433C82.0659 676.433 81.7974 676.38 81.5469 676.276C81.2964 676.172 81.0689 676.02 80.8772 675.828C80.6856 675.637 80.5337 675.409 80.4302 675.158C80.3267 674.908 80.2736 674.639 80.274 674.368C80.2742 673.96 80.3954 673.561 80.6224 673.221C80.8494 672.882 81.1718 672.618 81.5491 672.462C81.9263 672.306 82.3413 672.265 82.7416 672.345C83.142 672.425 83.5097 672.621 83.7982 672.91C84.0867 673.199 84.2831 673.567 84.3625 673.967C84.442 674.368 84.4009 674.783 84.2445 675.16C84.0881 675.537 83.8234 675.859 83.4839 676.086C83.1443 676.312 82.7452 676.433 82.337 676.433ZM84.119 689.452H80.555V678H84.119V689.452ZM99.225 669H78.771C77.792 669 77 669.774 77 670.729V691.271C77 692.227 77.792 693 78.771 693H99.222C100.2 693 101 692.227 101 691.271V670.729C101 669.774 100.2 669 99.222 669H99.225Z" fill="#69E4FF"/>
<path d="M118.922 732H117.172V727.383L113.203 720.727H115.156L118.031 725.703H118.086L120.961 720.727H122.898L118.922 727.383V732ZM125.898 732.156C123.547 732.156 122 730.539 122 727.891C122 725.25 123.555 723.633 125.898 723.633C128.242 723.633 129.797 725.25 129.797 727.891C129.797 730.539 128.25 732.156 125.898 732.156ZM125.898 730.766C127.227 730.766 128.078 729.719 128.078 727.891C128.078 726.07 127.219 725.023 125.898 725.023C124.578 725.023 123.719 726.07 123.719 727.891C123.719 729.719 124.578 730.766 125.898 730.766ZM138.148 723.781V732H136.531V730.609H136.492C136.039 731.594 135.203 732.148 133.945 732.148C132.156 732.148 131.062 730.984 131.062 729.102V723.781H132.75V728.773C132.75 730.023 133.344 730.695 134.508 730.695C135.727 730.695 136.461 729.852 136.461 728.57V723.781H138.148ZM140.312 721.836H142.008V723.781H143.57V725.117H142.008V729.648C142.008 730.359 142.32 730.68 143.008 730.68C143.18 730.68 143.453 730.664 143.562 730.641V731.977C143.375 732.023 143 732.055 142.625 732.055C140.961 732.055 140.312 731.422 140.312 729.836V725.117H139.117V723.781H140.312V721.836ZM152.008 723.781V732H150.391V730.609H150.352C149.898 731.594 149.062 732.148 147.805 732.148C146.016 732.148 144.922 730.984 144.922 729.102V723.781H146.609V728.773C146.609 730.023 147.203 730.695 148.367 730.695C149.586 730.695 150.32 729.852 150.32 728.57V723.781H152.008ZM158.055 732.141C156.852 732.141 155.922 731.555 155.414 730.602H155.383V732H153.742V720.727H155.43V725.18H155.469C155.961 724.227 156.898 723.648 158.062 723.648C160.133 723.648 161.484 725.289 161.484 727.891C161.484 730.5 160.141 732.141 158.055 732.141ZM157.602 725.07C156.32 725.07 155.422 726.195 155.422 727.891C155.422 729.602 156.32 730.711 157.602 730.711C158.93 730.711 159.75 729.633 159.75 727.891C159.75 726.164 158.93 725.07 157.602 725.07ZM166.242 724.992C165.062 724.992 164.234 725.891 164.148 727.133H168.258C168.219 725.875 167.422 724.992 166.242 724.992ZM168.25 729.586H169.852C169.617 731.086 168.195 732.156 166.312 732.156C163.898 732.156 162.438 730.523 162.438 727.93C162.438 725.352 163.922 723.633 166.242 723.633C168.523 723.633 169.945 725.242 169.945 727.734V728.312H164.141V728.414C164.141 729.844 165 730.789 166.352 730.789C167.312 730.789 168.023 730.305 168.25 729.586Z" fill="white" fill-opacity="0.6"/>
<path d="M100.499 721.59C100.36 721.092 100.095 720.637 99.7286 720.272C99.3627 719.906 98.9086 719.64 98.4102 719.501C96.5395 719 89.0107 719 89.0107 719C89.0107 719 81.5009 718.99 79.6112 719.501C79.1128 719.64 78.6587 719.906 78.2927 720.272C77.9268 720.637 77.6615 721.092 77.5224 721.59C77.1678 723.505 76.993 725.449 77.0002 727.397C76.9943 729.338 77.1692 731.274 77.5224 733.182C77.6615 733.681 77.9268 734.135 78.2927 734.501C78.6587 734.867 79.1128 735.132 79.6112 735.271C81.4799 735.773 89.0107 735.773 89.0107 735.773C89.0107 735.773 96.5195 735.773 98.4102 735.271C98.9086 735.132 99.3627 734.867 99.7286 734.501C100.095 734.135 100.36 733.681 100.499 733.182C100.845 731.274 101.012 729.337 100.999 727.397C101.014 725.45 100.846 723.506 100.499 721.59ZM86.6078 730.989V723.794L92.8741 727.397L86.6078 730.989Z" fill="#FF9494"/>
<path d="M123.75 773.312C123.75 776.367 121.945 778.188 118.891 778.188C115.664 778.188 113.633 775.93 113.633 772.312C113.633 768.758 115.656 766.539 118.867 766.539C121.375 766.539 123.273 768.023 123.664 770.273H121.867C121.445 768.875 120.344 768.07 118.875 768.07C116.719 768.07 115.422 769.648 115.422 772.297C115.422 774.992 116.758 776.656 118.906 776.656C120.734 776.656 122 775.484 122.023 773.773V773.578H119.109V772.164H123.75V773.312ZM125.312 778V769.781H127V778H125.312ZM126.156 768.578C125.617 768.578 125.18 768.148 125.18 767.617C125.18 767.078 125.617 766.648 126.156 766.648C126.703 766.648 127.141 767.078 127.141 767.617C127.141 768.148 126.703 768.578 126.156 768.578ZM129.219 767.836H130.914V769.781H132.477V771.117H130.914V775.648C130.914 776.359 131.227 776.68 131.914 776.68C132.086 776.68 132.359 776.664 132.469 776.641V777.977C132.281 778.023 131.906 778.055 131.531 778.055C129.867 778.055 129.219 777.422 129.219 775.836V771.117H128.023V769.781H129.219V767.836ZM133.93 778V766.727H135.602V771.156H135.641C136.094 770.195 136.992 769.641 138.242 769.641C140.047 769.641 141.125 770.844 141.125 772.703V778H139.43V773.031C139.43 771.82 138.82 771.094 137.633 771.094C136.383 771.094 135.617 771.953 135.617 773.25V778H133.93ZM149.805 769.781V778H148.188V776.609H148.148C147.695 777.594 146.859 778.148 145.602 778.148C143.812 778.148 142.719 776.984 142.719 775.102V769.781H144.406V774.773C144.406 776.023 145 776.695 146.164 776.695C147.383 776.695 148.117 775.852 148.117 774.57V769.781H149.805ZM155.852 778.141C154.648 778.141 153.719 777.555 153.211 776.602H153.18V778H151.539V766.727H153.227V771.18H153.266C153.758 770.227 154.695 769.648 155.859 769.648C157.93 769.648 159.281 771.289 159.281 773.891C159.281 776.5 157.938 778.141 155.852 778.141ZM155.398 771.07C154.117 771.07 153.219 772.195 153.219 773.891C153.219 775.602 154.117 776.711 155.398 776.711C156.727 776.711 157.547 775.633 157.547 773.891C157.547 772.164 156.727 771.07 155.398 771.07Z" fill="white" fill-opacity="0.6"/>
<path d="M89 761C82.37 761 77 766.373 77 773C77 778.303 80.438 782.8 85.205 784.385C85.805 784.498 86.025 784.127 86.025 783.808C86.025 783.523 86.015 782.768 86.01 781.768C82.672 782.492 81.968 780.158 81.968 780.158C81.422 778.773 80.633 778.403 80.633 778.403C79.546 777.659 80.717 777.674 80.717 777.674C81.922 777.758 82.555 778.91 82.555 778.91C83.625 780.745 85.364 780.215 86.05 779.908C86.158 779.132 86.467 778.603 86.81 778.303C84.145 778.003 81.344 776.971 81.344 772.373C81.344 771.063 81.809 769.993 82.579 769.153C82.444 768.85 82.039 767.63 82.684 765.977C82.684 765.977 83.689 765.655 85.984 767.207C86.944 766.94 87.964 766.808 88.984 766.802C90.004 766.808 91.024 766.94 91.984 767.207C94.264 765.655 95.269 765.977 95.269 765.977C95.914 767.63 95.509 768.85 95.389 769.153C96.154 769.993 96.619 771.063 96.619 772.373C96.619 776.983 93.814 777.998 91.144 778.293C91.564 778.653 91.954 779.389 91.954 780.513C91.954 782.119 91.939 783.409 91.939 783.799C91.939 784.114 92.149 784.489 92.764 784.369C97.565 782.795 101 778.295 101 773C101 766.373 95.627 761 89 761Z" fill="white"/>
<path d="M118.586 824H116.836V814.234H113.383V812.727H122.031V814.234H118.586V824ZM132.82 815.781L130.57 824H128.812L127.086 817.844H127.047L125.336 824H123.594L121.336 815.781H123.023L124.523 822.25H124.555L126.266 815.781H127.891L129.609 822.25H129.648L131.148 815.781H132.82ZM133.906 824V815.781H135.594V824H133.906ZM134.75 814.578C134.211 814.578 133.773 814.148 133.773 813.617C133.773 813.078 134.211 812.648 134.75 812.648C135.297 812.648 135.734 813.078 135.734 813.617C135.734 814.148 135.297 814.578 134.75 814.578ZM137.812 813.836H139.508V815.781H141.07V817.117H139.508V821.648C139.508 822.359 139.82 822.68 140.508 822.68C140.68 822.68 140.953 822.664 141.062 822.641V823.977C140.875 824.023 140.5 824.055 140.125 824.055C138.461 824.055 137.812 823.422 137.812 821.836V817.117H136.617V815.781H137.812V813.836ZM142.953 813.836H144.648V815.781H146.211V817.117H144.648V821.648C144.648 822.359 144.961 822.68 145.648 822.68C145.82 822.68 146.094 822.664 146.203 822.641V823.977C146.016 824.023 145.641 824.055 145.266 824.055C143.602 824.055 142.953 823.422 142.953 821.836V817.117H141.758V815.781H142.953V813.836ZM150.836 816.992C149.656 816.992 148.828 817.891 148.742 819.133H152.852C152.812 817.875 152.016 816.992 150.836 816.992ZM152.844 821.586H154.445C154.211 823.086 152.789 824.156 150.906 824.156C148.492 824.156 147.031 822.523 147.031 819.93C147.031 817.352 148.516 815.633 150.836 815.633C153.117 815.633 154.539 817.242 154.539 819.734V820.312H148.734V820.414C148.734 821.844 149.594 822.789 150.945 822.789C151.906 822.789 152.617 822.305 152.844 821.586ZM155.852 824V815.781H157.461V817.18H157.5C157.773 816.219 158.508 815.648 159.477 815.648C159.719 815.648 159.93 815.688 160.055 815.711V817.281C159.922 817.227 159.625 817.188 159.297 817.188C158.211 817.188 157.539 817.914 157.539 819.078V824H155.852Z" fill="white" fill-opacity="0.6"/>
<path d="M100.953 811.323C100.055 811.719 99.1027 811.98 98.1281 812.098C99.1542 811.482 99.9225 810.514 100.291 809.375C99.3401 809.93 98.2861 810.334 97.1642 810.559C96.424 809.768 95.4431 809.243 94.3739 809.066C93.3047 808.889 92.2071 809.07 91.2513 809.581C90.2956 810.092 89.5353 810.904 89.0886 811.892C88.6418 812.879 88.5335 813.986 88.7805 815.041C84.6907 814.848 81.0658 812.884 78.6399 809.915C78.1987 810.665 77.9686 811.52 77.974 812.39C77.974 814.1 78.8439 815.603 80.1619 816.486C79.3808 816.461 78.6169 816.25 77.934 815.87V815.931C77.9335 817.068 78.3262 818.169 79.0454 819.049C79.7646 819.929 80.7661 820.533 81.8798 820.758C81.1581 820.951 80.4023 820.98 79.6679 820.843C79.9841 821.821 80.5977 822.676 81.423 823.288C82.2483 823.901 83.2441 824.24 84.2717 824.26C82.5313 825.626 80.3823 826.367 78.17 826.365C77.78 826.365 77.391 826.342 77 826.298C79.2556 827.742 81.8783 828.509 84.5567 828.507C93.6103 828.507 98.5551 821.011 98.5551 814.521C98.5551 814.312 98.5551 814.101 98.5401 813.891C99.506 813.196 100.339 812.333 101 811.343L100.953 811.323Z" fill="#0075FF"/>
<path d="M118.797 230.188C115.633 230.188 113.633 227.953 113.633 224.359C113.633 220.789 115.648 218.539 118.797 218.539C121.352 218.539 123.281 220.109 123.578 222.461H121.844C121.531 221.016 120.328 220.07 118.797 220.07C116.75 220.07 115.422 221.75 115.422 224.359C115.422 226.992 116.734 228.656 118.805 228.656C120.375 228.656 121.492 227.852 121.844 226.492H123.586C123.156 228.82 121.391 230.188 118.797 230.188ZM132.164 228.484V230H125.164V218.727H126.914V228.484H132.164ZM134.93 218.727V225.891C134.93 227.5 135.945 228.633 137.742 228.633C139.539 228.633 140.562 227.5 140.562 225.891V218.727H142.305V226.039C142.305 228.469 140.57 230.188 137.742 230.188C134.914 230.188 133.18 228.469 133.18 226.039V218.727H134.93ZM148.906 230H144.383V218.727H148.883C150.883 218.727 152.195 219.836 152.195 221.539C152.195 222.734 151.312 223.805 150.188 223.992V224.055C151.719 224.227 152.75 225.312 152.75 226.812C152.75 228.797 151.305 230 148.906 230ZM146.133 220.156V223.523H148.094C149.609 223.523 150.445 222.898 150.445 221.781C150.445 220.734 149.727 220.156 148.461 220.156H146.133ZM146.133 228.57H148.547C150.125 228.57 150.961 227.922 150.961 226.703C150.961 225.484 150.102 224.859 148.445 224.859H146.133V228.57Z" fill="white" fill-opacity="0.6"/>
<path d="M88 218L94 224" stroke="white" stroke-opacity="0.8" stroke-width="2" stroke-linecap="round" stroke-linejoin="round"/>
<path d="M81 227L92.7 215.3C92.8869 215.117 93.1382 215.014 93.4 215.014C93.6618 215.014 93.9131 215.117 94.1 215.3L96.7 217.9C96.8832 218.087 96.9859 218.338 96.9859 218.6C96.9859 218.862 96.8832 219.113 96.7 219.3L85 231H81V227Z" stroke="white" stroke-opacity="0.8" stroke-width="2" stroke-linecap="round" stroke-linejoin="round"/>
<path d="M115.789 275H114.039V263.727H115.789V275ZM122.625 275.188C119.461 275.188 117.461 272.953 117.461 269.359C117.461 265.789 119.477 263.539 122.625 263.539C125.18 263.539 127.109 265.109 127.406 267.461H125.672C125.359 266.016 124.156 265.07 122.625 265.07C120.578 265.07 119.25 266.75 119.25 269.359C119.25 271.992 120.562 273.656 122.633 273.656C124.203 273.656 125.32 272.852 125.672 271.492H127.414C126.984 273.82 125.219 275.188 122.625 275.188ZM133.055 275H131.305V265.234H127.852V263.727H136.5V265.234H133.055V275ZM148.18 273.484V275H141.18V263.727H142.93V273.484H148.18ZM157.023 275L155.992 271.953H151.695L150.664 275H148.844L152.914 263.727H154.805L158.875 275H157.023ZM153.82 265.602L152.141 270.547H155.547L153.867 265.602H153.82ZM164.641 275H160.117V263.727H164.617C166.617 263.727 167.93 264.836 167.93 266.539C167.93 267.734 167.047 268.805 165.922 268.992V269.055C167.453 269.227 168.484 270.312 168.484 271.812C168.484 273.797 167.039 275 164.641 275ZM161.867 265.156V268.523H163.828C165.344 268.523 166.18 267.898 166.18 266.781C166.18 265.734 165.461 265.156 164.195 265.156H161.867ZM161.867 273.57H164.281C165.859 273.57 166.695 272.922 166.695 271.703C166.695 270.484 165.836 269.859 164.18 269.859H161.867V273.57Z" fill="white" fill-opacity="0.6"/>
<path d="M86 275C81.7 276.4 81.7 272.5 80 272M92 277V273.5C92 272.5 92.1 272.1 91.5 271.5C94.3 271.2 97 270.1 97 265.5C96.9988 264.305 96.5325 263.157 95.7 262.3C96.0905 261.262 96.0545 260.112 95.6 259.1C95.6 259.1 94.5 258.8 92.1 260.4C90.0672 259.871 87.9328 259.871 85.9 260.4C83.5 258.8 82.4 259.1 82.4 259.1C81.9455 260.112 81.9095 261.262 82.3 262.3C81.4675 263.157 81.0012 264.305 81 265.5C81 270.1 83.7 271.2 86.5 271.5C85.9 272.1 85.9 272.7 86 273.5V277" stroke="white" stroke-opacity="0.8" stroke-width="2" stroke-linecap="round" stroke-linejoin="round"/>
<path d="M118.797 320.188C115.633 320.188 113.633 317.953 113.633 314.359C113.633 310.789 115.648 308.539 118.797 308.539C121.352 308.539 123.281 310.109 123.578 312.461H121.844C121.531 311.016 120.328 310.07 118.797 310.07C116.75 310.07 115.422 311.75 115.422 314.359C115.422 316.992 116.734 318.656 118.805 318.656C120.375 318.656 121.492 317.852 121.844 316.492H123.586C123.156 318.82 121.391 320.188 118.797 320.188ZM132.367 320L131.336 316.953H127.039L126.008 320H124.188L128.258 308.727H130.148L134.219 320H132.367ZM129.164 310.602L127.484 315.547H130.891L129.211 310.602H129.164ZM137.164 320H135.461V308.727H137.047L142.891 317.039H142.953V308.727H144.656V320H143.078L137.234 311.695H137.164V320ZM151.289 320H149.539V310.234H146.086V308.727H154.734V310.234H151.289V320ZM163.32 318.484V320H156.164V308.727H163.32V310.234H157.914V313.531H163.031V314.984H157.914V318.484H163.32ZM172.273 318.484V320H165.117V308.727H172.273V310.234H166.867V313.531H171.984V314.984H166.867V318.484H172.273ZM175.773 320H174.07V308.727H175.656L181.5 317.039H181.562V308.727H183.266V320H181.688L175.844 311.695H175.773V320Z" fill="white" fill-opacity="0.6"/>
<path d="M81 320C81 320.53 81.2107 321.039 81.5858 321.414C81.9609 321.789 82.4696 322 83 322C83.5304 322 84.0391 321.789 84.4142 321.414C84.7893 321.039 85 320.53 85 320C85 319.47 84.7893 318.961 84.4142 318.586C84.0391 318.211 83.5304 318 83 318C82.4696 318 81.9609 318.211 81.5858 318.586C81.2107 318.961 81 319.47 81 320Z" stroke="white" stroke-opacity="0.8" stroke-width="2" stroke-linecap="round" stroke-linejoin="round"/>
<path d="M92 320C92 320.53 92.2107 321.039 92.5858 321.414C92.9609 321.789 93.4696 322 94 322C94.5304 322 95.0391 321.789 95.4142 321.414C95.7893 321.039 96 320.53 96 320C96 319.47 95.7893 318.961 95.4142 318.586C95.0391 318.211 94.5304 318 94 318C93.4696 318 92.9609 318.211 92.5858 318.586C92.2107 318.961 92 319.47 92 320Z" stroke="white" stroke-opacity="0.8" stroke-width="2" stroke-linecap="round" stroke-linejoin="round"/>
<path d="M94 318H83V304H81" stroke="white" stroke-opacity="0.8" stroke-width="2" stroke-linecap="round" stroke-linejoin="round"/>
<path d="M83 306L97 307L96 314H83" stroke="white" stroke-opacity="0.8" stroke-width="2" stroke-linecap="round" stroke-linejoin="round"/>
<path d="M188.668 33.5H186.266V21.0547H186.184L181.086 33.3711H179.141L174.031 21.0547H173.949V33.5H171.559V16.5898H174.594L180.066 29.9375H180.16L185.621 16.5898H188.668V33.5ZM194.41 16.5898V27.3359C194.41 29.75 195.934 31.4492 198.629 31.4492C201.324 31.4492 202.859 29.75 202.859 27.3359V16.5898H205.473V27.5586C205.473 31.2031 202.871 33.7812 198.629 33.7812C194.387 33.7812 191.785 31.2031 191.785 27.5586V16.5898H194.41ZM215.375 33.5H208.59V16.5898H215.34C218.34 16.5898 220.309 18.2539 220.309 20.8086C220.309 22.6016 218.984 24.207 217.297 24.4883V24.582C219.594 24.8398 221.141 26.4688 221.141 28.7188C221.141 31.6953 218.973 33.5 215.375 33.5ZM211.215 18.7344V23.7852H214.156C216.43 23.7852 217.684 22.8477 217.684 21.1719C217.684 19.6016 216.605 18.7344 214.707 18.7344H211.215ZM211.215 31.3555H214.836C217.203 31.3555 218.457 30.3828 218.457 28.5547C218.457 26.7266 217.168 25.7891 214.684 25.7891H211.215V31.3555ZM230.539 33.7812C225.793 33.7812 222.793 30.4297 222.793 25.0391C222.793 19.6836 225.816 16.3086 230.539 16.3086C234.371 16.3086 237.266 18.6641 237.711 22.1914H235.109C234.641 20.0234 232.836 18.6055 230.539 18.6055C227.469 18.6055 225.477 21.125 225.477 25.0391C225.477 28.9883 227.445 31.4844 230.551 31.4844C232.906 31.4844 234.582 30.2773 235.109 28.2383H237.723C237.078 31.7305 234.43 33.7812 230.539 33.7812Z" fill="white"/>
</g>
<defs>
<filter id="filter0_b_143_67" x="-40" y="-40" width="380" height="1062" filterUnits="userSpaceOnUse" color-interpolation-filters="sRGB">
<feFlood flood-opacity="0" result="BackgroundImageFix"/>
<feGaussianBlur in="BackgroundImageFix" stdDeviation="20"/>
<feComposite in2="SourceAlpha" operator="in" result="effect1_backgroundBlur_143_67"/>
<feBlend mode="normal" in="SourceGraphic" in2="effect1_backgroundBlur_143_67" result="shape"/>
</filter>
<filter id="filter1_b_143_67" x="-4.34106" y="46" width="68" height="940" filterUnits="userSpaceOnUse" color-interpolation-filters="sRGB">
<feFlood flood-opacity="0" result="BackgroundImageFix"/>
<feGaussianBlur in="BackgroundImageFix" stdDeviation="2"/>
<feComposite in2="SourceAlpha" operator="in" result="effect1_backgroundBlur_143_67"/>
<feBlend mode="normal" in="SourceGraphic" in2="effect1_backgroundBlur_143_67" result="shape"/>
</filter>
<filter id="filter2_b_143_67" x="-4" y="-4" width="108" height="58" filterUnits="userSpaceOnUse" color-interpolation-filters="sRGB">
<feFlood flood-opacity="0" result="BackgroundImageFix"/>
<feGaussianBlur in="BackgroundImageFix" stdDeviation="2"/>
<feComposite in2="SourceAlpha" operator="in" result="effect1_backgroundBlur_143_67"/>
<feBlend mode="normal" in="SourceGraphic" in2="effect1_backgroundBlur_143_67" result="shape"/>
</filter>
<filter id="filter3_d_143_67" x="60" y="107" width="56" height="56" filterUnits="userSpaceOnUse" color-interpolation-filters="sRGB">
<feFlood flood-opacity="0" result="BackgroundImageFix"/>
<feColorMatrix in="SourceAlpha" type="matrix" values="0 0 0 0 0 0 0 0 0 0 0 0 0 0 0 0 0 0 127 0" result="hardAlpha"/>
<feOffset dy="2"/>
<feGaussianBlur stdDeviation="5"/>
<feComposite in2="hardAlpha" operator="out"/>
<feColorMatrix type="matrix" values="0 0 0 0 0 0 0 0 0 0 0 0 0 0 0 0 0 0 0.25 0"/>
<feBlend mode="normal" in2="BackgroundImageFix" result="effect1_dropShadow_143_67"/>
<feBlend mode="normal" in="SourceGraphic" in2="effect1_dropShadow_143_67" result="shape"/>
</filter>
<linearGradient id="paint0_linear_143_67" x1="156.5" y1="50" x2="156.5" y2="100" gradientUnits="userSpaceOnUse">
<stop stop-color="#00F0FF"/>
<stop offset="1" stop-color="#8F00FF"/>
</linearGradient>
<linearGradient id="paint1_linear_143_67" x1="29.5" y1="57" x2="57.5" y2="91" gradientUnits="userSpaceOnUse">
<stop stop-color="#0500FF"/>
<stop offset="0.359375" stop-color="#250BC0"/>
<stop offset="1" stop-color="#8F00FF"/>
</linearGradient>
<linearGradient id="paint2_linear_143_67" x1="29.5" y1="353" x2="57.5" y2="387" gradientUnits="userSpaceOnUse">
<stop stop-color="#7B7B7B"/>
</linearGradient>
<linearGradient id="paint3_linear_143_67" x1="29.5" y1="604" x2="57.5" y2="638" gradientUnits="userSpaceOnUse">
<stop stop-color="#7B7B7B"/>
</linearGradient>
<linearGradient id="paint4_linear_143_67" x1="72.5" y1="115" x2="100.5" y2="149" gradientUnits="userSpaceOnUse">
<stop stop-color="#0500FF"/>
<stop offset="0.359375" stop-color="#250BC0"/>
<stop offset="1" stop-color="#8F00FF"/>
</linearGradient>
<linearGradient id="paint5_linear_143_67" x1="89" y1="124" x2="89" y2="142.005" gradientUnits="userSpaceOnUse">
<stop stop-color="white"/>
</linearGradient>
<linearGradient id="paint6_linear_143_67" x1="85.5" y1="130.5" x2="85.5" y2="132.5" gradientUnits="userSpaceOnUse">
<stop stop-color="white"/>
</linearGradient>
<linearGradient id="paint7_linear_143_67" x1="89.5" y1="127.5" x2="89.5" y2="129.5" gradientUnits="userSpaceOnUse">
<stop stop-color="white"/>
</linearGradient>
<linearGradient id="paint8_linear_143_67" x1="93.5" y1="130.5" x2="93.5" y2="132.5" gradientUnits="userSpaceOnUse">
<stop stop-color="white"/>
</linearGradient>
<linearGradient id="paint9_linear_143_67" x1="147" y1="124" x2="147" y2="143" gradientUnits="userSpaceOnUse">
<stop stop-color="white"/>
</linearGradient>
<clipPath id="clip0_143_67">
<rect width="300" height="982" fill="white"/>
</clipPath>
</defs>
</svg>
