<svg width="800" height="50" viewBox="0 0 800 50" fill="none" xmlns="http://www.w3.org/2000/svg">
<path d="M0 0L800 0L781.633 0C778.329 0 776.677 0 775.411 0.632732C774.249 1.21349 773.306 2.15585 772.726 3.31813C772.093 4.58442 772.093 6.23628 772.093 9.54V14.066C772.093 26.51 772.093 32.732 769.71 37.5017C767.522 41.8796 763.973 45.4292 759.595 47.6167C754.825 50 748.603 50 736.159 50L63.841 50C51.397 50 45.175 50 40.4053 47.6167C36.0273 45.4292 32.4778 41.8796 30.2903 37.5017C27.907 32.732 27.907 26.51 27.907 14.066V9.54C27.907 6.23628 27.907 4.58442 27.2742 3.31813C26.6935 2.15585 25.7511 1.21349 24.5888 0.632732C23.3226 0 21.6707 0 18.367 0L0 0Z" fill="white"/>
<path d="M89.5273 20.022H94.0513C96.3174 20.022 97.8862 21.6157 97.8862 23.8984C97.8862 26.1396 96.2842 27.7251 94.0347 27.7251H91.0215V32H89.5273V20.022ZM91.0215 21.3501V26.397H93.6611C95.3628 26.397 96.3506 25.4839 96.3506 23.8984C96.3506 22.2549 95.396 21.3501 93.6611 21.3501H91.0215ZM99.8274 32V19.499H101.255V24.4629H101.388C101.836 23.4751 102.774 22.894 104.144 22.894C106.036 22.894 107.232 24.106 107.232 26.2061V32H105.804V26.5547C105.804 24.9692 105.09 24.1807 103.737 24.1807C102.135 24.1807 101.255 25.1934 101.255 26.7041V32H99.8274ZM113.107 32.1577C110.559 32.1577 108.982 30.3979 108.982 27.5259C108.982 24.6455 110.559 22.894 113.107 22.894C115.656 22.894 117.233 24.6455 117.233 27.5259C117.233 30.3979 115.656 32.1577 113.107 32.1577ZM113.107 30.8711C114.801 30.8711 115.755 29.6426 115.755 27.5259C115.755 25.4009 114.801 24.1807 113.107 24.1807C111.414 24.1807 110.459 25.4009 110.459 27.5259C110.459 29.6426 111.414 30.8711 113.107 30.8711ZM119.664 20.7358H121.091V23.0518H123.084V24.2471H121.091V29.3105C121.091 30.3647 121.49 30.813 122.42 30.813C122.677 30.813 122.818 30.8047 123.084 30.7798V31.9834C122.801 32.0332 122.527 32.0664 122.245 32.0664C120.402 32.0664 119.664 31.3857 119.664 29.6758V24.2471H118.219V23.0518H119.664V20.7358ZM128.378 32.1577C125.83 32.1577 124.253 30.3979 124.253 27.5259C124.253 24.6455 125.83 22.894 128.378 22.894C130.927 22.894 132.504 24.6455 132.504 27.5259C132.504 30.3979 130.927 32.1577 128.378 32.1577ZM128.378 30.8711C130.072 30.8711 131.026 29.6426 131.026 27.5259C131.026 25.4009 130.072 24.1807 128.378 24.1807C126.685 24.1807 125.73 25.4009 125.73 27.5259C125.73 29.6426 126.685 30.8711 128.378 30.8711ZM134.129 25.5005C134.129 24.0146 135.565 22.894 137.466 22.894C139.342 22.894 140.646 23.8237 140.836 25.293H139.425C139.234 24.5791 138.537 24.106 137.458 24.106C136.396 24.106 135.565 24.6455 135.565 25.4424C135.565 26.0566 136.064 26.4385 137.118 26.6958L138.496 27.0278C140.181 27.4346 140.994 28.165 140.994 29.4517C140.994 31.0537 139.442 32.1577 137.408 32.1577C135.416 32.1577 134.046 31.2031 133.889 29.7173H135.358C135.599 30.4727 136.313 30.9541 137.458 30.9541C138.662 30.9541 139.525 30.3813 139.525 29.5596C139.525 28.9453 139.06 28.5303 138.106 28.2979L136.57 27.9243C134.893 27.5176 134.129 26.7954 134.129 25.5005ZM143.732 35.0464H142.661L143.45 30.3232H145.035L143.732 35.0464ZM152.039 20.022H156.563C158.829 20.022 160.398 21.6157 160.398 23.8984C160.398 26.1396 158.796 27.7251 156.546 27.7251H153.533V32H152.039V20.022ZM153.533 21.3501V26.397H156.173C157.874 26.397 158.862 25.4839 158.862 23.8984C158.862 22.2549 157.907 21.3501 156.173 21.3501H153.533ZM165.576 24.1558C164.148 24.1558 163.152 25.2017 163.044 26.7871H167.975C167.942 25.2017 166.995 24.1558 165.576 24.1558ZM167.933 29.6841H169.361C168.93 31.2197 167.552 32.1577 165.593 32.1577C163.111 32.1577 161.558 30.3647 161.558 27.5342C161.558 24.7202 163.136 22.894 165.593 22.894C168.008 22.894 169.477 24.6123 169.477 27.3931V27.9409H163.044V28.0073C163.119 29.7754 164.107 30.896 165.626 30.896C166.78 30.896 167.56 30.4727 167.933 29.6841ZM174.988 32.1577C172.44 32.1577 170.862 30.3979 170.862 27.5259C170.862 24.6455 172.44 22.894 174.988 22.894C177.536 22.894 179.113 24.6455 179.113 27.5259C179.113 30.3979 177.536 32.1577 174.988 32.1577ZM174.988 30.8711C176.681 30.8711 177.636 29.6426 177.636 27.5259C177.636 25.4009 176.681 24.1807 174.988 24.1807C173.295 24.1807 172.34 25.4009 172.34 27.5259C172.34 29.6426 173.295 30.8711 174.988 30.8711ZM185.304 22.894C187.587 22.894 189.065 24.7119 189.065 27.5259C189.065 30.3232 187.579 32.1577 185.304 32.1577C184.026 32.1577 182.997 31.6016 182.507 30.6553H182.374V34.9883H180.947V23.0518H182.308V24.5459H182.441C183.013 23.5166 184.084 22.894 185.304 22.894ZM184.964 30.8711C186.608 30.8711 187.587 29.6177 187.587 27.5259C187.587 25.4341 186.608 24.1807 184.972 24.1807C183.354 24.1807 182.333 25.4673 182.333 27.5259C182.333 29.5762 183.354 30.8711 184.964 30.8711ZM190.981 32V19.499H192.409V32H190.981ZM198.342 24.1558C196.915 24.1558 195.919 25.2017 195.811 26.7871H200.741C200.708 25.2017 199.762 24.1558 198.342 24.1558ZM200.7 29.6841H202.128C201.696 31.2197 200.318 32.1577 198.359 32.1577C195.877 32.1577 194.325 30.3647 194.325 27.5342C194.325 24.7202 195.902 22.894 198.359 22.894C200.775 22.894 202.244 24.6123 202.244 27.3931V27.9409H195.811V28.0073C195.885 29.7754 196.873 30.896 198.392 30.896C199.546 30.896 200.326 30.4727 200.7 29.6841ZM204.982 35.0464H203.911L204.7 30.3232H206.285L204.982 35.0464ZM213.288 20.022H217.812C220.078 20.022 221.647 21.6157 221.647 23.8984C221.647 26.1396 220.045 27.7251 217.796 27.7251H214.783V32H213.288V20.022ZM214.783 21.3501V26.397H217.422C219.124 26.397 220.112 25.4839 220.112 23.8984C220.112 22.2549 219.157 21.3501 217.422 21.3501H214.783ZM223.588 32V19.499H225.016V32H223.588ZM230.136 30.9043C231.606 30.9043 232.693 29.9414 232.693 28.6631V27.8413L230.286 27.999C228.925 28.0903 228.327 28.5635 228.327 29.46C228.327 30.373 229.099 30.9043 230.136 30.9043ZM229.871 32.1577C228.136 32.1577 226.849 31.1284 226.849 29.4932C226.849 27.8911 228.028 26.9697 230.112 26.8452L232.693 26.6875V25.874C232.693 24.77 232.004 24.1641 230.668 24.1641C229.597 24.1641 228.85 24.5708 228.651 25.2764H227.206C227.397 23.8403 228.808 22.894 230.718 22.894C232.901 22.894 234.121 24.0146 234.121 25.874V32H232.76V30.6802H232.627C232.046 31.6348 231.066 32.1577 229.871 32.1577ZM243.757 25.791H242.312C242.08 24.9028 241.291 24.1807 240.005 24.1807C238.394 24.1807 237.382 25.4673 237.382 27.4927C237.382 29.5596 238.411 30.8711 240.005 30.8711C241.208 30.8711 242.047 30.3149 242.312 29.3022H243.757C243.499 30.9458 242.163 32.1577 240.013 32.1577C237.506 32.1577 235.904 30.3398 235.904 27.4927C235.904 24.7036 237.498 22.894 240.005 22.894C242.18 22.894 243.508 24.1973 243.757 25.791ZM249.027 24.1558C247.599 24.1558 246.603 25.2017 246.495 26.7871H251.425C251.392 25.2017 250.446 24.1558 249.027 24.1558ZM251.384 29.6841H252.812C252.38 31.2197 251.002 32.1577 249.043 32.1577C246.561 32.1577 245.009 30.3647 245.009 27.5342C245.009 24.7202 246.586 22.894 249.043 22.894C251.459 22.894 252.928 24.6123 252.928 27.3931V27.9409H246.495V28.0073C246.569 29.7754 247.557 30.896 249.076 30.896C250.23 30.896 251.01 30.4727 251.384 29.6841ZM254.554 25.5005C254.554 24.0146 255.99 22.894 257.891 22.894C259.766 22.894 261.07 23.8237 261.261 25.293H259.849C259.659 24.5791 258.961 24.106 257.882 24.106C256.82 24.106 255.99 24.6455 255.99 25.4424C255.99 26.0566 256.488 26.4385 257.542 26.6958L258.92 27.0278C260.605 27.4346 261.418 28.165 261.418 29.4517C261.418 31.0537 259.866 32.1577 257.832 32.1577C255.84 32.1577 254.471 31.2031 254.313 29.7173H255.782C256.023 30.4727 256.737 30.9541 257.882 30.9541C259.086 30.9541 259.949 30.3813 259.949 29.5596C259.949 28.9453 259.484 28.5303 258.53 28.2979L256.994 27.9243C255.317 27.5176 254.554 26.7954 254.554 25.5005ZM264.43 32.083C263.841 32.083 263.351 31.5933 263.351 31.0039C263.351 30.4062 263.841 29.9248 264.43 29.9248C265.028 29.9248 265.509 30.4062 265.509 31.0039C265.509 31.5933 265.028 32.083 264.43 32.083ZM269.069 32.083C268.48 32.083 267.99 31.5933 267.99 31.0039C267.99 30.4062 268.48 29.9248 269.069 29.9248C269.667 29.9248 270.148 30.4062 270.148 31.0039C270.148 31.5933 269.667 32.083 269.069 32.083ZM273.708 32.083C273.119 32.083 272.629 31.5933 272.629 31.0039C272.629 30.4062 273.119 29.9248 273.708 29.9248C274.306 29.9248 274.787 30.4062 274.787 31.0039C274.787 31.5933 274.306 32.083 273.708 32.083Z" fill="#3C3C43" fill-opacity="0.3"/>
<path d="M56.3833 29.7666C57.7695 29.7666 59.0479 29.3184 60.0938 28.5713L64.0283 32.5059C64.2109 32.6885 64.4517 32.7798 64.709 32.7798C65.2485 32.7798 65.6304 32.3647 65.6304 31.8335C65.6304 31.5845 65.5474 31.3438 65.3647 31.1694L61.4551 27.2515C62.2769 26.1724 62.7666 24.8359 62.7666 23.3833C62.7666 19.8721 59.8945 17 56.3833 17C52.8804 17 50 19.8638 50 23.3833C50 26.8945 52.8721 29.7666 56.3833 29.7666ZM56.3833 28.3887C53.644 28.3887 51.3779 26.1226 51.3779 23.3833C51.3779 20.644 53.644 18.3779 56.3833 18.3779C59.1226 18.3779 61.3887 20.644 61.3887 23.3833C61.3887 26.1226 59.1226 28.3887 56.3833 28.3887Z" fill="#3C3C43" fill-opacity="0.3"/>
<path d="M743.943 28.563C745.595 28.563 746.708 27.3262 746.708 25.5581V20.0049C746.708 18.2285 745.595 17 743.943 17C742.283 17 741.171 18.2285 741.171 20.0049V25.5581C741.171 27.3262 742.283 28.563 743.943 28.563ZM738 25.6909C738 28.9448 740.15 31.2275 743.312 31.4932V33.4272H740.233C739.884 33.4272 739.602 33.7095 739.602 34.0581C739.602 34.4067 739.884 34.6807 740.233 34.6807H747.646C747.994 34.6807 748.276 34.4067 748.276 34.0581C748.276 33.7095 747.994 33.4272 747.646 33.4272H744.566V31.4932C747.737 31.2275 749.878 28.9448 749.878 25.6909V24.0059C749.878 23.6572 749.604 23.3833 749.256 23.3833C748.907 23.3833 748.625 23.6572 748.625 24.0059V25.6411C748.625 28.4717 746.782 30.3477 743.943 30.3477C741.096 30.3477 739.253 28.4717 739.253 25.6411V24.0059C739.253 23.6572 738.979 23.3833 738.623 23.3833C738.274 23.3833 738 23.6572 738 24.0059V25.6909Z" fill="#3C3C43" fill-opacity="0.3"/>
</svg>
