<svg width="800" height="50" viewBox="0 0 800 50" fill="none" xmlns="http://www.w3.org/2000/svg">
<path d="M0 0L800 0L781.633 0C778.329 0 776.677 0 775.411 0.632732C774.249 1.21349 773.306 2.15585 772.726 3.31813C772.093 4.58442 772.093 6.23628 772.093 9.54V14.066C772.093 26.51 772.093 32.732 769.71 37.5017C767.522 41.8796 763.973 45.4292 759.595 47.6167C754.825 50 748.603 50 736.159 50L63.841 50C51.397 50 45.175 50 40.4053 47.6167C36.0273 45.4292 32.4778 41.8796 30.2903 37.5017C27.907 32.732 27.907 26.51 27.907 14.066V9.54C27.907 6.23628 27.907 4.58442 27.2742 3.31813C26.6935 2.15585 25.7511 1.21349 24.5888 0.632732C23.3226 0 21.6707 0 18.367 0L0 0Z" fill="black"/>
</svg>
